<svg xmlns="http://www.w3.org/2000/svg" xmlns:xlink="http://www.w3.org/1999/xlink" viewBox="0 0 566.926 566.929"><defs><style>.a{fill:none;}.b{clip-path:url(#a);}.c{fill:#606060;}.d{fill:#cab395;}.e{fill:#2c2628;}.f{fill:#feeee0;}.g{clip-path:url(#b);}.h{fill:#d8aba0;}.i{fill:#f5bdad;}.j{fill:#fdfefe;}.k{fill:#dc9467;}.l{clip-path:url(#d);}.m{fill:#e7a880;}.n{clip-path:url(#e);}.o{fill:#f9cfc6;}.p{fill:#ac6d60;}.q{fill:#110b09;}.r{fill:#fce0bb;}.s{fill:#dcb1a5;}.t{fill:#fff;}.u{fill:#4b4d4c;}.v{fill:#231815;opacity:0.09;}.w{fill:#b19d82;}.x{fill:#292c2d;}.y{fill:#faeadc;}.z{clip-path:url(#h);}.aa{fill:#d1a79d;}.ab{clip-path:url(#i);}.ac{clip-path:url(#j);}.ad{fill:#282828;}</style><clipPath id="a"><rect class="a" width="566.926" height="566.926"/></clipPath><clipPath id="b"><path class="a" d="M389.2,361.322S356.742,502.37,269.989,521.55c-48.1,15.935-92.065-43.376-101.508-43.967s-35.114,20.656-50.458,35.115-5.9-153.442-5.9-153.442L183.53,255.978l68.714-14.164,63.777,40.426Z"/></clipPath><clipPath id="d"><path class="a" d="M206.1,306.289s-36.885,17.675-39.836,55.829c0,7.466,20.8,22.368,57.1-30.452C214.956,312.043,206.1,306.289,206.1,306.289Z"/></clipPath><clipPath id="e"><path class="a" d="M295.366,415.764s-67.437,47.213-30.246,54.147c17.41,3.246,52.893-36.885,52.893-36.885Z"/></clipPath><clipPath id="h"><path class="a" d="M139.76,480.436s-33.049,3.738-12.59,13.278c-1.377,16.918.3,18.3.3,18.3s13.279,21.443,22.918,17.705,13.869-18.59,6.59-33.442S139.76,480.436,139.76,480.436Z"/></clipPath><clipPath id="i"><path class="a" d="M137.5,388.371s-15.492,12.344-10.328,24.737.443,13.869.443,13.869-.021,3.984,4.194,8.557a20.634,20.634,0,0,0,0,9.443s21.625,3.984,23.691-22.574S141.924,388.568,137.5,388.371Z"/></clipPath><clipPath id="j"><path class="a" d="M155.794,566.926s17.141-42.285,3.709-64.966c-2.628,1.181,2.4,29.579-28.644,14.935,0,15.738.836,50.031.836,50.031Z"/></clipPath></defs><g class="b"><rect class="c" width="566.926" height="566.926"/><path class="d" d="M341.348,566.926H130.48L126.164,418.8s199.246,95.689,209.676,94.72C368.914,510.444,341.348,566.926,341.348,566.926Z"/><path class="e" d="M100.121,93.094S87.334,96.93,146.2,191.356,384.775,492.177,515.791,531.208c-47.213-124.444-85.574-190.22-85.574-190.22L401.89,303.559l-31.623-39.267-40.935-41.107-82.359-69.6Z"/><path class="f" d="M389.2,361.322S356.742,502.37,269.989,521.55c-48.1,15.935-92.065-43.376-101.508-43.967s-35.114,20.656-50.458,35.115-5.9-153.442-5.9-153.442L183.53,255.978l68.714-14.164,63.777,40.426Z"/><g class="g"><path class="h" d="M120.488,394.666s43.993,87.342,105.009,123.2c-50.819-12.245-114.556,0-114.556,0Z"/></g><g class="g"><path class="i" d="M242.841,506.8s-7.377-43.376,31.869-16.229,12.235,40.641,12.235,40.641l-30.825,1.85Z"/></g><path class="j" d="M333.431,451.764s-52.819,44.9-76.711,14.773c28.526-30.1,55.023-40.74,55.023-40.74l13.389,14.828Z"/><path class="j" d="M168.311,366.486s-17.977-9.148-19.453-40.131c11.8-28.328,39.689-35.262,39.689-35.262l23.472,21.058Z"/><path class="k" d="M206.1,306.289s-36.885,17.675-39.836,55.829c0,7.466,20.8,22.368,57.1-30.452C214.956,312.043,206.1,306.289,206.1,306.289Z"/><path class="k" d="M295.366,415.764s-67.437,47.213-30.246,54.147c17.41,3.246,52.893-36.885,52.893-36.885Z"/><g class="l"><path class="m" d="M164.643,315.781s43.674,2.361,49.576,38.557-56.656,24-56.656,24Z"/></g><g class="n"><path class="m" d="M254.347,419.375s43.674,2.36,49.576,38.557-56.655,24-56.655,24Z"/></g><g class="l"><path class="o" d="M163.071,345.963s26.9-1.127,31.746,28.017c-17.188,11.44-31.746-4.082-31.746-4.082Z"/></g><g class="n"><path class="o" d="M247.411,443.671s26.9-1.126,31.746,28.018c-17.188,11.44-31.746-4.082-31.746-4.082Z"/></g><ellipse class="p" cx="197.62" cy="336.535" rx="12.025" ry="5.754" transform="translate(-180.085 238.308) rotate(-45)"/><ellipse class="p" cx="288.136" cy="440.403" rx="12.025" ry="5.754" transform="translate(-227.019 332.734) rotate(-45)"/><ellipse class="o" cx="192.822" cy="354.029" rx="3.947" ry="1.678" transform="translate(-195.266 463.137) rotate(-77.128)"/><ellipse class="o" cx="181.586" cy="343.508" rx="2.561" ry="0.948" transform="translate(-147.426 136.814) rotate(-30)"/><ellipse class="o" cx="281.053" cy="456.15" rx="3.947" ry="1.678" transform="translate(-251.897 511.177) rotate(-64.256)"/><ellipse class="o" cx="272.443" cy="443.39" rx="2.561" ry="0.948" transform="translate(-118.498 99.901) rotate(-17.128)"/><path class="q" d="M187.366,290.5s31.869,23.606,36.295,46.032c5.017-.3,1.836-6.984,1.836-6.984s-11.278-27.737-33.311-39.048C185.891,286.666,187.366,290.5,187.366,290.5Z"/><path class="q" d="M289.25,415.371s-.811-2.695,2.7-1.84,36.14,14.485,45.153,39.182c1.287,2.082-.992,3.134-2.254,1.731S317.82,426.613,289.25,415.371Z"/><line class="q" x1="326.644" y1="393.486" x2="309.382" y2="381.977"/><path class="q" d="M326.617,393.527q-4.437-2.7-8.826-5.463c-1.468-.914-2.969-1.78-4.371-2.794a44.464,44.464,0,0,1-4.066-3.251l.056-.083a44.451,44.451,0,0,1,4.565,2.5c1.475.905,2.851,1.957,4.26,2.961q4.242,2.988,8.437,6.045Z"/><line class="q" x1="249.224" y1="310.716" x2="259.366" y2="326.355"/><path class="q" d="M249.266,310.688q2.717,3.792,5.365,7.63c.89,1.273,1.829,2.516,2.619,3.855a36.048,36.048,0,0,1,2.158,4.155l-.084.054a36.039,36.039,0,0,1-2.913-3.665c-.9-1.268-1.652-2.632-2.452-3.964q-2.423-3.982-4.777-8.01Z"/><path class="i" d="M128.35,317.945l16.23,23.043s24.491,39.219-16.23,32.137C92.941,335.65,128.35,317.945,128.35,317.945Z"/><path class="r" d="M276.329,513.448s-22,22.737-6.4,38.7c19.455-.306,22.027-3.054,22.027-3.054s16.049-12.38,2.035-42.982C277.449,512.585,276.329,513.448,276.329,513.448Z"/><path class="d" d="M282.638,538.174s-10.488,4.942-13.848,15.22c19.7-5.067,20.442-5.572,20.442-5.572S287.994,539.725,282.638,538.174Z"/><path class="d" d="M272.613,515.655s12.742,10.517,26.526,9.46C304.439,518.673,272.613,515.655,272.613,515.655Z"/><path class="s" d="M198.579,288.437s67.869,10.328,72,8.852c-6.2,12.1-7.3,16.82-7.3,16.82s44.286-8.262,44.085-8.262-5.511,44.852-5.511,44.852l39.442-1.772-22.416,33.05,52.022-25.672,6.787-47.356-86.479-46.184Z"/><path class="r" d="M126.285,279.88s4.574,63.294,25.967,77.311c6.713-21.689,46.327-68.754,46.327-68.754s68.459,5.9,76.721,1.77c-21.541,17.7-21.836,41.312-21.836,41.312s40.131-45.148,50.459-48.984c-31.672,34.033-48,101.508-48,101.508s69.1-25.475,91.672-51.639c-29.8,38.36-33.344,52.229-33.344,52.229s37.475-20.656,50.754-38.065c-15.935,31.868-17.312,84.983-6.394,94.721-7.77,6.688-21.246,53.507-92.852,67.671,9.049,17.7,75.541,22.248,75.541,22.248v33.621s93.639-156.2,81.442-246.294S315.726,149.749,210.284,160.372,100.121,292.287,100.121,292.287Z"/><polygon class="t" points="215.949 150.641 202.571 161.372 216.432 168.192 217.465 163.766 235.76 179.11 234.579 182.798 246.235 190.028 248.596 185.306 264.087 199.323 266.3 196.224 285.481 208.47 284.3 211.421 299.284 234.437 306.136 224.109 316.907 235.913 314.103 245.355 331.07 265.126 335.792 250.814 346.71 265.126 343.759 272.65 355.415 290.945 361.464 285.781 372.234 300.093 369.95 304.814 385.955 327.683 390.234 321.633 406.021 342.732 406.021 353.65 421.955 366.486 427.329 354.444 420.775 336.535 355.267 245.749 294.75 195.708 249.982 165.887 215.949 150.641"/><path class="u" d="M281.2,98.405S430.217,104.9,476.84,160.962s.906,162.053-24.334,180.026c-37.633-27.764-189.222-185.571-189.222-185.571s38.869-20.717,54.508-13.635C292.12,127.323,281.2,98.405,281.2,98.405Z"/><path class="t" d="M281.968,146.968S429.348,221.21,470.5,318.561c-17.27,27.515-20.36,30.366-20.36,30.366L256.12,157.618Z"/><path class="v" d="M401.918,229.525s-31.869,4.747-34.391,4.731c1.9,2.542,2.347,3.28,2.347,3.28S401.9,233.415,401.918,229.525Z"/><path class="t" d="M413.3,199.323s-7.081,25.77-11.8,30.688c0,0-21.12,5.146-33.969,4.245,16.068,18.771,93.379,130.115,93.379,130.115s4.131-23.213,11.213-29.508c9.049,1.18,29.114-4.328,29.114-4.328s-26.95-46.032-50.36-51.934l-11.606-13.967S437.89,237.093,413.3,199.323Z"/><path class="u" d="M100.121,93.094s50.753,16.505,125.114,63.54c90.156,57.027,212.614,161.887,290.556,374.574-7.672-86.969-64.47-333.852-406.544-444.409C94.121,85.717,100.121,93.094,100.121,93.094Z"/><path class="w" d="M180.211,566.926s.228-59.482,3.688-67.75c.885,14.754-1.844,67.75-1.844,67.75Z"/><path class="w" d="M190.612,566.926s-1.328-37.081,3.836-45.638c.886,14.9,1.476,45.638,1.476,45.638Z"/><polygon class="w" points="226.256 566.926 227.743 550.52 230.694 566.926 226.256 566.926"/><polygon class="w" points="238.777 566.926 240.112 543.982 244.686 566.929 238.777 566.926"/><line class="q" x1="219.364" y1="459.78" x2="177.825" y2="414.535"/><path class="q" d="M219.364,459.78c-3.766-3.49-7.387-7.114-10.957-10.785s-7.072-7.405-10.548-11.162c-3.449-3.782-6.879-7.581-10.224-11.459s-6.655-7.787-9.81-11.839c3.769,3.489,7.39,7.112,10.96,10.783s7.071,7.405,10.546,11.164c3.447,3.783,6.877,7.583,10.221,11.461S216.207,455.73,219.364,459.78Z"/><rect class="x" width="135.924" height="566.926"/><path class="y" d="M137.5,388.371s-15.492,12.344-10.328,24.737.443,13.869.443,13.869-.021,3.984,4.194,8.557a20.634,20.634,0,0,0,0,9.443s21.625,3.984,23.691-22.574S141.924,388.568,137.5,388.371Z"/><path class="y" d="M139.76,480.436s-33.049,3.738-12.59,13.278c-1.377,16.918.3,18.3.3,18.3s13.279,21.443,22.918,17.705,13.869-18.59,6.59-33.442S139.76,480.436,139.76,480.436Z"/><g class="z"><path class="aa" d="M129.039,476.305s-3.049,39.442,15.541,43.672c14.978-1.074,17.114-23.115,17.114-23.115s5.312,26.878.492,30.259-15.147,8.593-18.492,6.429-23.989-22.426-23.9-22.426,1.47-15.737,1.47-15.737l-5.114-6.787,3.644-11.508Z"/></g><g class="ab"><path class="aa" d="M144.58,446.993s-18.492-7.967-14.558-56.557c-25.868,50.951,5.509,59.8,5.509,59.8Z"/></g><path class="t" d="M155.794,566.926s17.141-42.285,3.709-64.966c-2.628,1.181,2.4,29.579-28.644,14.935,0,15.738.836,50.031.836,50.031Z"/><g class="ac"><path class="ad" d="M167.6,523.268s-5.393,20.414-38.106,11.873c.357,12.248,0,8.966,0,8.966s36.04-1.1,39.729-10.928S167.6,523.268,167.6,523.268Z"/></g><path class="v" d="M431.594,273.093a19.127,19.127,0,0,0-4.524,6.885c-19.082-28.131-16.328-30.1-16.328-30.1S424.316,266.6,431.594,273.093Z"/><path class="v" d="M443,287.06s-3.344,4.357-6.3,5.227c3.344,7.56,26.951,28.609,26.951,28.609S447.922,291.978,443,287.06Z"/><ellipse class="t" cx="309.127" cy="437.192" rx="3.827" ry="5.739"/><ellipse class="t" cx="216.746" cy="331.518" rx="3.061" ry="5.163"/><path class="r" d="M282.638,537.174S262.8,553.183,262.722,566.9c26.853,0,32.168.022,32.168.022S295.55,551.633,282.638,537.174Z"/></g></svg>