<svg id="b9d3dbef-3f1b-4bad-a0d4-41218936ddba" data-name="main" xmlns="http://www.w3.org/2000/svg" viewBox="0 0 5398.831 1709.846"><defs><style>.b36df984-fb45-4d75-acdf-c974dd79f4e0,.b55fbda3-987b-4e64-be72-d7494479c5e0{fill:#231815;}.b55fbda3-987b-4e64-be72-d7494479c5e0{fill-rule:evenodd;}.ace76712-d0bc-48dc-ba79-075bba3eff57{fill:#fff;}</style></defs><polygon class="b55fbda3-987b-4e64-be72-d7494479c5e0" points="12.911 1700.498 177.231 1550.778 176.977 299.592 337.318 299.592 337.318 1555.101 187.474 1700.498 12.911 1700.498"/><path class="ace76712-d0bc-48dc-ba79-075bba3eff57" d="M906.65-1595.289V-346.9L759.78-204.383H600.155L756.564-346.9l-.253-1248.393H906.65m10-10H746.309l0,10,.252,1243.975L593.42-211.775l-19.087,17.392h189.5l2.91-2.823,146.87-142.513,3.036-2.946V-1605.289Z" transform="translate(-574.333 1899.881)"/><rect class="b36df984-fb45-4d75-acdf-c974dd79f4e0" x="175.238" y="6.74" width="160.339" height="159.18"/><path class="ace76712-d0bc-48dc-ba79-075bba3eff57" d="M904.911-1888.141v149.179H754.571v-149.179h150.34m10-10H744.571v169.179h170.34v-169.179Z" transform="translate(-574.333 1899.881)"/><polygon class="b55fbda3-987b-4e64-be72-d7494479c5e0" points="1682.943 1701.654 1539.311 1555.251 2342.176 164.616 472.15 164.616 472.15 5 2353.59 5 2524.05 158.612 1719.11 1551.169 5393.831 1549.459 5393.831 1701.654 1682.943 1701.654"/><path class="ace76712-d0bc-48dc-ba79-075bba3eff57" d="M2926-1889.881l166.024,149.615L2284.774-343.709l3678.39-1.712v142.193H2259.375l-139.5-142.193,805.3-1394.845H1051.483v-149.615H2926m3.841-10H1041.483v169.615H2907.849L2111.213-350.421l-3.8,6.58,5.321,5.423,139.5,142.194,2.94,3H5973.164v-162.2l-10,0-3661.05,1.7,798.575-1381.544,4.053-7.012-6.016-5.421L2932.7-1897.31l-2.853-2.571Z" transform="translate(-574.333 1899.881)"/><polygon class="b55fbda3-987b-4e64-be72-d7494479c5e0" points="626.955 1704.846 472.15 1558.325 472.15 299.592 625.823 299.592 625.823 1551.173 1247.34 1551.173 1247.34 299.592 1401.013 299.592 1401.078 1558.243 1254.566 1704.846 626.955 1704.846"/><path class="ace76712-d0bc-48dc-ba79-075bba3eff57" d="M1970.346-1595.289l.065,1251.58L1826.826-200.036H1203.279l-151.8-143.673v-1251.58h143.673v1251.58h631.517v-1251.58h143.673m10-10H1816.673v1251.58H1205.156v-1251.58H1041.483V-339.4l3.126,2.959,151.8,143.673,2.892,2.737H1830.97l2.929-2.931L1977.484-336.64l2.927-2.928v-4.141l-.065-1251.581v-10Z" transform="translate(-574.333 1899.881)"/><rect class="b36df984-fb45-4d75-acdf-c974dd79f4e0" x="2657.527" y="5" width="159.616" height="159.616"/><path class="ace76712-d0bc-48dc-ba79-075bba3eff57" d="M3386.475-1889.881v149.616H3236.86v-149.616h149.615m10-10H3226.86v169.616h169.615v-169.616Z" transform="translate(-574.333 1899.881)"/><rect class="b36df984-fb45-4d75-acdf-c974dd79f4e0" x="2657.527" y="304.088" width="159.616" height="1107.618"/><path class="ace76712-d0bc-48dc-ba79-075bba3eff57" d="M3386.475-1590.794V-493.176H3236.86V-1590.794h149.615m10-10H3226.86V-483.176h169.615V-1600.794Z" transform="translate(-574.333 1899.881)"/><rect class="b36df984-fb45-4d75-acdf-c974dd79f4e0" x="2956.614" y="6.304" width="2437.216" height="159.616"/><path class="ace76712-d0bc-48dc-ba79-075bba3eff57" d="M5963.163-1888.578v149.616H3535.947v-149.616H5963.163m10-10H3525.947v169.616H5973.163v-169.616Z" transform="translate(-574.333 1899.881)"/><polygon class="b55fbda3-987b-4e64-be72-d7494479c5e0" points="4820.632 1414.749 4668.088 1262.204 4668.042 304.088 4827.658 304.088 4827.658 1255.133 5234.215 1255.133 5234.215 304.088 5393.831 304.088 5393.831 1262.199 5241.708 1414.749 4820.632 1414.749"/><path class="ace76712-d0bc-48dc-ba79-075bba3eff57" d="M5963.163-1590.794v951.046l-149.2,149.615H5397.036L5247.42-639.748l-.046-951.046H5396.99v951.046h416.558v-951.046h149.615m10-10H5803.548v951.046H5406.99v-951.046H5237.374v10l.046,951.045v4.142l2.93,2.929,149.615,149.615,2.929,2.929h425.222l2.93-2.938,149.2-149.616,2.918-2.927v-965.18Z" transform="translate(-574.333 1899.881)"/><path class="b55fbda3-987b-4e64-be72-d7494479c5e0" d="M4529.278-485.132l-152.105-152.55v-807.743l152.54-152.545h421.075l152.105,152.549.028,807.742L4950.564-485.132Zm414.027-159.616v-793.606H4536.789v793.606Z" transform="translate(-574.333 1899.881)"/><path class="ace76712-d0bc-48dc-ba79-075bba3eff57" d="M4948.714-1592.969l149.179,149.615.028,803.606-149.43,149.615H4531.353l-149.18-149.615v-803.606l149.612-149.615h416.929M4531.789-639.748h416.516v-803.606H4531.789v803.606m421.076-963.221H4527.642l-2.928,2.929L4375.1-1450.425l-2.929,2.929v811.881l2.919,2.927,149.18,149.616,2.931,2.939h425.434l2.929-2.933L5105-632.682l2.925-2.928v-4.139l-.028-803.6v-4.133l-2.918-2.927L4955.8-1600.03l-2.93-2.939Zm-411.076,169.615h396.516v783.606H4541.789v-783.606Z" transform="translate(-574.333 1899.881)"/><polygon class="b55fbda3-987b-4e64-be72-d7494479c5e0" points="3232.794 1411.701 3232.794 855.528 2955.509 382.063 3093.766 302.239 3312.556 681.198 3526.907 302.216 3665.162 382.039 3392.409 857.994 3392.409 1411.701 3232.794 1411.701"/><path class="ace76712-d0bc-48dc-ba79-075bba3eff57" d="M4103.109-1590.812,4232.678-1516l-270.936,472.785V-493.18H3812.126v-552.53L3536.7-1516l129.569-74.808,220.666,382.206,216.175-382.206m-3.738-13.705-4.967,8.782L3886.845-1228.76l-211.916-367.052-5-8.66-8.661,5L3531.7-1524.664l-8.714,5.031,5.085,8.682L3802.126-1043V-483.18h169.616v-557.376l269.613-470.476,4.956-8.649-8.633-4.983-129.569-74.808-8.738-5.045Z" transform="translate(-574.333 1899.881)"/></svg>